{"title":"Happy Twon 1x02 [HDTV + AC3 + Spanish]","uid":5570449,"size":466522112,"categoryP":"video","categoryS":"tv_shows","magnet":"?xt=urn:btih:7cdadcb50722f46bf51e0ce8d31b4a2531641a3b&amp;dn=Happy+Twon+1x02+%5BHDTV+%2B+AC3+%2B+Spanish%5D&amp;tr=udp%3A%2F%2Ftracker.openbittorrent.com%3A80&amp;tr=udp%3A%2F%2Fopen.demonii.com%3A1337&amp;tr=udp%3A%2F%2Ftracker.coppersurfer.tk%3A6969&amp;tr=udp%3A%2F%2Fexodus.desync.com%3A6969","seeders":0,"leechers":0,"uploader":"fleqii","files":1,"time":1274233986,"description":"C:UsersJoelDocumentsCompartirHappy Twon 1x02 [HDTV + AC3 + Spanish].avi\n   General\n      Complete name : C:UsersJoelDocumentsCompartirHappy Twon 1x02 [HDTV + AC3 + Spanish].avi\n      Format : AVI\n      Format/Info : Audio Video Interleave\n      File size : 445 MiB\n      Duration : 40mn 34s\n      Overall bit rate : 1 533 Kbps\n      Writing application : VirtualDubMod 1.5.10.2 (build 2540/release)\n      Writing library : VirtualDubMod build 2540/release\n   Video #0\n      ID : 0\n      Format : MPEG-4 Visual\n      Format profile : Simple@L3\n      Format settings, BVOP : No\n      Format settings, QPel : No\n      Format settings, GMC : No warppoints\n      Format settings, Matrix : Default (H.263)\n      Codec ID : XVID\n      Codec ID/Hint : XviD\n      Duration : 40mn 34s\n      Bit rate : 1 075 Kbps\n      Width : 624 pixels\n      Height : 352 pixels\n      Display aspect ratio : 16:9\n      Frame rate : 25.000 fps\n      Resolution : 24 bits\n      Colorimetry : 4:2:0\n      Scan type : Progressive\n      Bits/(Pixel*Frame) : 0.196\n      Stream size : 312 MiB (70%)\n      Writing library : XviD 1.2.0.dev49\n   Audio #1\n      ID : 1\n      Format : AC-3\n      Format/Info : Audio Coding 3\n      Codec ID : 2000\n      Duration : 40mn 34s\n      Bit rate mode : Constant\n      Bit rate : 448 Kbps\n      Channel(s) : 2 channels\n      Channel positions : L R\n      Sampling rate : 48.0 KHz\n      Stream size : 130 MiB (29%)\n      Alignment : Split accross interleaves\n      Interleave, duration : 40 ms (1.00 video frame)\n      Interleave, preload duration : 500 ms\n      Idioma : Spanish","torrent":{"xt":"urn:btih:7cdadcb50722f46bf51e0ce8d31b4a2531641a3b","amp;dn":"Happy+Twon+1x02+%5BHDTV+%2B+AC3+%2B+Spanish%5D","amp;tr":["udp%3A%2F%2Ftracker.openbittorrent.com%3A80","udp%3A%2F%2Fopen.demonii.com%3A1337","udp%3A%2F%2Ftracker.coppersurfer.tk%3A6969","udp%3A%2F%2Fexodus.desync.com%3A6969"],"infoHash":"7cdadcb50722f46bf51e0ce8d31b4a2531641a3b","infoHashBuffer":{"type":"Buffer","data":[124,218,220,181,7,34,244,107,245,30,12,232,211,27,74,37,49,100,26,59]},"announce":[],"urlList":[]}}